<svg width="1194" height="51" viewBox="0 0 1194 51" fill="none" xmlns="http://www.w3.org/2000/svg">
<g filter="url(#filter0_d_149_476)">
<path fill-rule="evenodd" clip-rule="evenodd" d="M1194 22.1466L1190.02 26.7605C1186.03 31.3743 1177.21 36.4022 1169.24 41.0161C1160.28 45.63 1154.1 41.4727 1146.13 35.936C1138.17 30.3994 1129.27 27.6832 1121.3 26.7605C1112.34 25.8377 1104.38 35.0654 1096.41 32.2971C1088.44 29.5288 1080.47 14.7644 1072.51 12.9189C1063.55 11.0733 1055.58 22.1466 1047.61 31.3743C1039.65 40.6021 1028.25 28.5804 1020.28 27.6577C1011.32 26.7349 1006.78 36.911 998.817 29.5288C990.85 22.1466 982.883 16.6099 974.917 18.4555C965.954 20.3011 957.987 29.5288 950.021 32.2971C942.054 35.0654 934.087 31.3743 926.121 32.2971C917.158 33.2199 911.469 18.9045 903.503 23.5184C895.536 28.1323 883.41 40.9083 875.443 35.3717C866.481 29.835 860.396 25.8377 852.429 17.5327C844.462 9.22774 836.496 7.3822 828.529 12.9189C819.567 18.4555 811.6 31.3743 803.633 32.2971C795.667 33.2199 787.7 22.1466 779.733 19.3783C771.767 16.61 762.804 22.1466 754.837 26.7605C746.871 31.3743 738.904 35.0654 730.937 37.8338C722.971 40.6021 714.008 42.4477 706.042 41.5249C698.075 40.6021 690.108 36.911 682.142 32.2971C674.175 27.6832 665.212 22.1466 657.246 20.3011C649.279 18.4555 641.312 20.301 633.346 23.0694C625.379 25.8377 616.417 29.5288 608.45 33.2199C600.483 36.911 592.517 40.6021 584.55 36.911C576.583 33.2199 567.621 22.1466 559.654 15.6872C551.688 9.22774 543.721 7.3822 535.754 7.3822C527.787 7.3822 518.825 9.22775 510.858 14.7644C502.892 20.3011 494.925 29.5288 486.958 32.2971C478.992 35.0654 470.029 31.3743 462.062 26.7605C454.096 22.1466 446.129 16.61 438.162 14.7644C430.196 12.9188 421.233 14.7644 413.267 16.6099C405.3 18.4555 397.333 20.3011 389.367 18.4555C381.4 16.6099 373.433 11.0733 364.471 9.22775C356.504 7.38219 348.537 9.22775 340.571 14.7644C332.604 20.3011 324.638 29.5288 315.675 33.2199C307.708 36.911 299.742 35.0654 291.775 36.911C283.808 38.7565 275.842 44.2932 266.879 42.4477C258.912 40.6021 250.946 31.3743 242.979 31.3743C235.012 31.3743 227.046 40.6021 218.083 41.5249C210.117 42.4477 202.15 35.0654 194.183 31.3743C186.217 27.6832 178.25 27.6832 169.287 23.9921C161.321 20.301 153.354 12.9189 145.387 11.0733C137.421 9.22775 129.454 12.9188 120.492 16.6099C112.525 20.3011 104.558 23.9921 96.5917 28.606C88.625 33.2199 80.6583 38.7565 71.6958 38.7565C63.7291 38.7565 55.7625 33.2199 47.7958 33.2199C39.8291 33.2199 31.8624 38.7565 22.8999 34.1427C14.9332 29.5288 6.96655 14.7644 2.98328 7.3822L-1 0H2.98328C6.96655 0 14.9332 0 22.8999 0C31.8624 0 39.8291 0 47.7958 0C55.7625 0 63.7291 0 71.6958 0C80.6583 0 88.625 0 96.5917 0C104.558 0 112.525 0 120.492 0C129.454 0 137.421 0 145.387 0C153.354 0 161.321 0 169.287 0C178.25 0 186.217 0 194.183 0C202.15 0 210.117 0 218.083 0C227.046 0 235.012 0 242.979 0C250.946 0 258.912 0 266.879 0C275.842 0 283.808 0 291.775 0C299.742 0 307.708 0 315.675 0C324.638 0 332.604 0 340.571 0C348.537 0 356.504 0 364.471 0C373.433 0 381.4 0 389.367 0C397.333 0 405.3 0 413.267 0C421.233 0 430.196 0 438.162 0C446.129 0 454.096 0 462.062 0C470.029 0 478.992 0 486.958 0C494.925 0 502.892 0 510.858 0C518.825 0 527.787 0 535.754 0C543.721 0 551.688 0 559.654 0C567.621 0 576.583 0 584.55 0C592.517 0 600.483 0 608.45 0C616.417 0 625.379 0 633.346 0C641.312 0 649.279 0 657.246 0C665.212 0 674.175 0 682.142 0C690.108 0 698.075 0 706.042 0C714.008 0 722.971 0 730.937 0C738.904 0 746.871 0 754.837 0C762.804 0 771.767 0 779.733 0C787.7 0 795.667 0 803.633 0C811.6 0 819.567 0 828.529 0C836.496 0 844.462 0 852.429 0C860.396 0 868.362 0 877.325 0C885.292 0 893.258 0 901.225 0C909.192 0 917.158 0 926.121 0C934.087 0 942.054 0 950.021 0C957.987 0 965.954 0 974.917 0C982.883 0 990.85 0 998.817 0C1006.78 0 1014.75 0 1023.71 0C1031.68 0 1039.65 0 1047.61 0C1055.58 0 1063.55 0 1072.51 0C1080.47 0 1088.44 0 1096.41 0C1104.38 0 1112.34 0 1121.3 0C1129.27 0 1137.24 0 1145.2 0C1153.17 0 1161.14 0 1170.1 0C1178.07 0 1186.03 0 1190.02 0H1194V22.1466Z" fill="#191919"/>
</g>
<defs>
<filter id="filter0_d_149_476" x="-5" y="0" width="1203" height="51" filterUnits="userSpaceOnUse" color-interpolation-filters="sRGB">
<feFlood flood-opacity="0" result="BackgroundImageFix"/>
<feColorMatrix in="SourceAlpha" type="matrix" values="0 0 0 0 0 0 0 0 0 0 0 0 0 0 0 0 0 0 127 0" result="hardAlpha"/>
<feOffset dy="4"/>
<feGaussianBlur stdDeviation="2"/>
<feComposite in2="hardAlpha" operator="out"/>
<feColorMatrix type="matrix" values="0 0 0 0 0 0 0 0 0 0 0 0 0 0 0 0 0 0 0.25 0"/>
<feBlend mode="normal" in2="BackgroundImageFix" result="effect1_dropShadow_149_476"/>
<feBlend mode="normal" in="SourceGraphic" in2="effect1_dropShadow_149_476" result="shape"/>
</filter>
</defs>
</svg>
